{
  "accessors": [
    {
      "bufferView": 0,
      "componentType": 5126,
      "count": 65535,
      "max": [
        3.234650135040283,
        2.8603527545928955,
        4.060159683227539
      ],
      "min": [
        2.4803731441497803,
        -2.3176636695861816,
        -0.005590222775936127
      ],
      "type": "VEC3"
    },
    {
      "bufferView": 1,
      "componentType": 5126,
      "count": 65535,
      "max": [
        0.9647058844566345,
        0.8549019694328308,
        0.9019607901573181,
        1.0
      ],
      "min": [
        0.07058823853731155,
        0.007843137718737125,
        0.007843137718737125,
        1.0
      ],
      "type": "VEC4"
    },
    {
      "bufferView": 0,
      "byteOffset": 786420,
      "componentType": 5126,
      "count": 65535,
      "max": [
        3.193260431289673,
        2.857154369354248,
        4.060159683227539
      ],
      "min": [
        2.1882500648498535,
        -2.334733009338379,
        -0.03034021705389023
      ],
      "type": "VEC3"
    },
    {
      "bufferView": 1,
      "byteOffset": 1048560,
      "componentType": 5126,
      "count": 65535,
      "max": [
        0.9490196108818054,
        0.886274516582489,
        0.9019607901573181,
        1.0
      ],
      "min": [
        0.07058823853731155,
        0.007843137718737125,
        0.007843137718737125,
        1.0
      ],
      "type": "VEC4"
    },
    {
      "bufferView": 0,
      "byteOffset": 1572840,
      "componentType": 5126,
      "count": 65535,
      "max": [
        2.645864725112915,
        2.7927045822143555,
        4.060159683227539
      ],
      "min": [
        1.320969581604004,
        -2.6442580223083496,
        -0.04609021916985512
      ],
      "type": "VEC3"
    },
    {
      "bufferView": 1,
      "byteOffset": 2097120,
      "componentType": 5126,
      "count": 65535,
      "max": [
        0.9803921580314636,
        0.9803921580314636,
        0.9647058844566345,
        1.0
      ],
      "min": [
        0.0235294122248888,
        0.007843137718737125,
        0.007843137718737125,
        1.0
      ],
      "type": "VEC4"
    },
    {
      "bufferView": 0,
      "byteOffset": 2359260,
      "componentType": 5126,
      "count": 65535,
      "max": [
        1.9812074899673462,
        2.904712677001953,
        4.037659645080566
      ],
      "min": [
        -1.580047607421875,
        -2.9048147201538086,
        -0.015715217217803
      ],
      "type": "VEC3"
    },
    {
      "bufferView": 1,
      "byteOffset": 3145680,
      "componentType": 5126,
      "count": 65535,
      "max": [
        0.9960784316062927,
        0.9960784316062927,
        0.9960784316062927,
        1.0
      ],
      "min": [
        0.054901961237192154,
        0.03921568766236305,
        0.007843137718737125,
        1.0
      ],
      "type": "VEC4"
    },
    {
      "bufferView": 0,
      "byteOffset": 3145680,
      "componentType": 5126,
      "count": 65535,
      "max": [
        -0.772955596446991,
        2.904423236846924,
        4.0579094886779785
      ],
      "min": [
        -2.738215923309326,
        -2.875408172607422,
        -0.013465218245983124
      ],
      "type": "VEC3"
    },
    {
      "bufferView": 1,
      "byteOffset": 4194240,
      "componentType": 5126,
      "count": 65535,
      "max": [
        0.9960784316062927,
        0.9960784316062927,
        0.9960784316062927,
        1.0
      ],
      "min": [
        0.007843137718737125,
        0.0235294122248888,
        0.0235294122248888,
        1.0
      ],
      "type": "VEC4"
    },
    {
      "bufferView": 0,
      "byteOffset": 3932100,
      "componentType": 5126,
      "count": 65535,
      "max": [
        -1.9424899816513062,
        2.904025077819824,
        3.399784564971924
      ],
      "min": [
        -3.2327980995178223,
        -2.704275608062744,
        -0.044965218752622604
      ],
      "type": "VEC3"
    },
    {
      "bufferView": 1,
      "byteOffset": 5242800,
      "componentType": 5126,
      "count": 65535,
      "max": [
        0.9960784316062927,
        0.9960784316062927,
        0.9960784316062927,
        1.0
      ],
      "min": [
        0.0235294122248888,
        0.03921568766236305,
        0.007843137718737125,
        1.0
      ],
      "type": "VEC4"
    },
    {
      "bufferView": 0,
      "byteOffset": 4718520,
      "componentType": 5126,
      "count": 65535,
      "max": [
        -1.9889657497406006,
        2.8938093185424805,
        4.060159683227539
      ],
      "min": [
        -3.034597158432007,
        -2.7036733627319336,
        -0.008965224027633667
      ],
      "type": "VEC3"
    },
    {
      "bufferView": 1,
      "byteOffset": 6291360,
      "componentType": 5126,
      "count": 65535,
      "max": [
        0.9960784316062927,
        0.9960784316062927,
        0.9960784316062927,
        1.0
      ],
      "min": [
        0.007843137718737125,
        0.0235294122248888,
        0.007843137718737125,
        1.0
      ],
      "type": "VEC4"
    },
    {
      "bufferView": 0,
      "byteOffset": 5504940,
      "componentType": 5126,
      "count": 65535,
      "max": [
        0.37659981846809387,
        2.904893159866333,
        4.060159683227539
      ],
      "min": [
        -2.7231695652008057,
        -2.904621124267578,
        -0.04609021916985512
      ],
      "type": "VEC3"
    },
    {
      "bufferView": 1,
      "byteOffset": 7339920,
      "componentType": 5126,
      "count": 65535,
      "max": [
        0.9960784316062927,
        0.9803921580314636,
        0.9960784316062927,
        1.0
      ],
      "min": [
        0.03921568766236305,
        0.0235294122248888,
        0.007843137718737125,
        1.0
      ],
      "type": "VEC4"
    },
    {
      "bufferView": 0,
      "byteOffset": 6291360,
      "componentType": 5126,
      "count": 65535,
      "max": [
        0.8602027893066406,
        2.830723285675049,
        4.060159683227539
      ],
      "min": [
        -0.4129646420478821,
        -2.9043314456939697,
        -0.013465218245983124
      ],
      "type": "VEC3"
    },
    {
      "bufferView": 1,
      "byteOffset": 8388480,
      "componentType": 5126,
      "count": 65535,
      "max": [
        0.9803921580314636,
        0.9803921580314636,
        0.9803921580314636,
        1.0
      ],
      "min": [
        0.007843137718737125,
        0.007843137718737125,
        0.007843137718737125,
        1.0
      ],
      "type": "VEC4"
    },
    {
      "bufferView": 0,
      "byteOffset": 7077780,
      "componentType": 5126,
      "count": 65535,
      "max": [
        1.2335740327835083,
        2.7961013317108154,
        4.05565881729126
      ],
      "min": [
        0.165354922413826,
        -2.9041385650634766,
        -0.005590222775936127
      ],
      "type": "VEC3"
    },
    {
      "bufferView": 1,
      "byteOffset": 9437040,
      "componentType": 5126,
      "count": 65535,
      "max": [
        0.9803921580314636,
        0.9647058844566345,
        0.9803921580314636,
        1.0
      ],
      "min": [
        0.007843137718737125,
        0.007843137718737125,
        0.007843137718737125,
        1.0
      ],
      "type": "VEC4"
    },
    {
      "bufferView": 0,
      "byteOffset": 7864200,
      "componentType": 5126,
      "count": 65535,
      "max": [
        1.7998709678649902,
        2.7875726222991943,
        4.0241594314575195
      ],
      "min": [
        0.4546166658401489,
        -2.744250535964966,
        -0.008965224027633667
      ],
      "type": "VEC3"
    },
    {
      "bufferView": 1,
      "byteOffset": 10485600,
      "componentType": 5126,
      "count": 65535,
      "max": [
        0.9803921580314636,
        0.9803921580314636,
        0.9803921580314636,
        1.0
      ],
      "min": [
        0.08627451211214066,
        0.054901961237192154,
        0.007843137718737125,
        1.0
      ],
      "type": "VEC4"
    },
    {
      "bufferView": 0,
      "byteOffset": 8650620,
      "componentType": 5126,
      "count": 3545,
      "max": [
        1.7805360555648804,
        2.7938971519470215,
        4.056784152984619
      ],
      "min": [
        1.032321810722351,
        -2.375823974609375,
        2.7956595420837402
      ],
      "type": "VEC3"
    },
    {
      "bufferView": 1,
      "byteOffset": 11534160,
      "componentType": 5126,
      "count": 3545,
      "max": [
        0.9019607901573181,
        0.7607843279838562,
        0.6509804129600525,
        1.0
      ],
      "min": [
        0.30588236451148987,
        0.32156863808631897,
        0.33725491166114807,
        1.0
      ],
      "type": "VEC4"
    }
  ],
  "asset": {
    "extras": {
      "author": "MWintersberger (https://sketchfab.com/mwintersberger)",
      "license": "CC-BY-4.0 (http://creativecommons.org/licenses/by/4.0/)",
      "source": "https://sketchfab.com/3d-models/krahuletz-002-b17f44afe1534289830c162c231e8264",
      "title": "Krahuletz 002"
    },
    "generator": "Sketchfab-15.31.0",
    "version": "2.0"
  },
  "bufferViews": [
    {
      "buffer": 0,
      "byteLength": 8693160,
      "byteStride": 12,
      "name": "floatBufferViews",
      "target": 34962
    },
    {
      "buffer": 0,
      "byteLength": 11590880,
      "byteOffset": 8693160,
      "byteStride": 16,
      "name": "floatBufferViews",
      "target": 34962
    }
  ],
  "buffers": [
    {
      "byteLength": 20284040,
      "uri": ".bin"
    }
  ],
  "extensionsUsed": [
    "KHR_materials_unlit"
  ],
  "materials": [
    {
      "doubleSided": true,
      "emissiveFactor": [
        0.0012719113338464595,
        0.0,
        0.1
      ],
      "extensions": {
        "KHR_materials_unlit": {}
      },
      "name": "Scene_-_Root",
      "pbrMetallicRoughness": {
        "metallicFactor": 0.0
      }
    }
  ],
  "meshes": [
    {
      "name": "Object_0",
      "primitives": [
        {
          "attributes": {
            "COLOR_0": 1,
            "POSITION": 0
          },
          "material": 0,
          "mode": 0
        }
      ]
    },
    {
      "name": "Object_1",
      "primitives": [
        {
          "attributes": {
            "COLOR_0": 3,
            "POSITION": 2
          },
          "material": 0,
          "mode": 0
        }
      ]
    },
    {
      "name": "Object_2",
      "primitives": [
        {
          "attributes": {
            "COLOR_0": 5,
            "POSITION": 4
          },
          "material": 0,
          "mode": 0
        }
      ]
    },
    {
      "name": "Object_3",
      "primitives": [
        {
          "attributes": {
            "COLOR_0": 7,
            "POSITION": 6
          },
          "material": 0,
          "mode": 0
        }
      ]
    },
    {
      "name": "Object_4",
      "primitives": [
        {
          "attributes": {
            "COLOR_0": 9,
            "POSITION": 8
          },
          "material": 0,
          "mode": 0
        }
      ]
    },
    {
      "name": "Object_5",
      "primitives": [
        {
          "attributes": {
            "COLOR_0": 11,
            "POSITION": 10
          },
          "material": 0,
          "mode": 0
        }
      ]
    },
    {
      "name": "Object_6",
      "primitives": [
        {
          "attributes": {
            "COLOR_0": 13,
            "POSITION": 12
          },
          "material": 0,
          "mode": 0
        }
      ]
    },
    {
      "name": "Object_7",
      "primitives": [
        {
          "attributes": {
            "COLOR_0": 15,
            "POSITION": 14
          },
          "material": 0,
          "mode": 0
        }
      ]
    },
    {
      "name": "Object_8",
      "primitives": [
        {
          "attributes": {
            "COLOR_0": 17,
            "POSITION": 16
          },
          "material": 0,
          "mode": 0
        }
      ]
    },
    {
      "name": "Object_9",
      "primitives": [
        {
          "attributes": {
            "COLOR_0": 19,
            "POSITION": 18
          },
          "material": 0,
          "mode": 0
        }
      ]
    },
    {
      "name": "Object_10",
      "primitives": [
        {
          "attributes": {
            "COLOR_0": 21,
            "POSITION": 20
          },
          "material": 0,
          "mode": 0
        }
      ]
    },
    {
      "name": "Object_11",
      "primitives": [
        {
          "attributes": {
            "COLOR_0": 23,
            "POSITION": 22
          },
          "material": 0,
          "mode": 0
        }
      ]
    }
  ],
  "nodes": [
    {
      "children": [
        1
      ],
      "matrix": [
        1.0,
        0.0,
        0.0,
        0.0,
        0.0,
        2.220446049250313e-16,
        -1.0,
        0.0,
        0.0,
        1.0,
        2.220446049250313e-16,
        0.0,
        0.0,
        0.0,
        0.0,
        1.0
      ],
      "name": "Sketchfab_model"
    },
    {
      "children": [
        2,
        3,
        4,
        5,
        6,
        7,
        8,
        9,
        10,
        11,
        12,
        13
      ],
      "name": "Geode"
    },
    {
      "mesh": 0,
      "name": "Object_2"
    },
    {
      "mesh": 1,
      "name": "Object_3"
    },
    {
      "mesh": 2,
      "name": "Object_4"
    },
    {
      "mesh": 3,
      "name": "Object_5"
    },
    {
      "mesh": 4,
      "name": "Object_6"
    },
    {
      "mesh": 5,
      "name": "Object_7"
    },
    {
      "mesh": 6,
      "name": "Object_8"
    },
    {
      "mesh": 7,
      "name": "Object_9"
    },
    {
      "mesh": 8,
      "name": "Object_10"
    },
    {
      "mesh": 9,
      "name": "Object_11"
    },
    {
      "mesh": 10,
      "name": "Object_12"
    },
    {
      "mesh": 11,
      "name": "Object_13"
    }
  ],
  "scene": 0,
  "scenes": [
    {
      "name": "Sketchfab_Scene",
      "nodes": [
        0
      ]
    }
  ]
}
